<svg width="32" height="32" viewBox="0 0 32 32" fill="none" xmlns="http://www.w3.org/2000/svg">
<path d="M16 4.88867C9.86114 4.88867 4.88892 9.86089 4.88892 15.9998C4.88766 18.3323 5.62093 20.606 6.98471 22.4983C8.34849 24.3906 10.2735 25.8054 12.4867 26.542C13.0422 26.6387 13.25 26.3053 13.25 26.0131C13.25 25.7498 13.2356 24.8753 13.2356 23.9442C10.4445 24.4587 9.72225 23.2642 9.50003 22.6387C9.37447 22.3187 8.83336 21.3331 8.36114 21.0687C7.97225 20.8609 7.4167 20.3464 8.3467 20.3331C9.22225 20.3187 9.8467 21.1387 10.0556 21.472C11.0556 23.152 12.6534 22.6798 13.2911 22.3887C13.3889 21.6665 13.68 21.1809 14 20.9031C11.5278 20.6253 8.94447 19.6665 8.94447 15.4165C8.94447 14.2076 9.37447 13.2087 10.0834 12.4298C9.97225 12.152 9.58336 11.0131 10.1945 9.48534C10.1945 9.48534 11.1245 9.19423 13.25 10.6253C14.1545 10.3743 15.0891 10.2479 16.0278 10.2498C16.9722 10.2498 17.9167 10.3742 18.8056 10.6242C20.93 9.17978 21.8611 9.48645 21.8611 9.48645C22.4722 11.0142 22.0834 12.1531 21.9722 12.4309C22.68 13.2087 23.1111 14.1942 23.1111 15.4165C23.1111 19.6809 20.5145 20.6253 18.0422 20.9031C18.4445 21.2498 18.7922 21.9165 18.7922 22.9587C18.7922 24.4442 18.7778 25.6387 18.7778 26.0142C18.7778 26.3053 18.9867 26.652 19.5422 26.5409C21.7478 25.7962 23.6644 24.3787 25.0221 22.4877C26.3799 20.5968 27.1105 18.3277 27.1111 15.9998C27.1111 9.86089 22.1389 4.88867 16 4.88867Z" fill="#6C6F93"/>
</svg>
