<svg width="32" height="32" viewBox="0 0 32 32" fill="none" xmlns="http://www.w3.org/2000/svg">
<path d="M27.2911 8.9507C26.4428 9.32592 25.5433 9.57234 24.6222 9.68182C25.5931 9.10119 26.3197 8.18739 26.6667 7.1107C25.7556 7.65293 24.7567 8.03293 23.7156 8.23848C23.0162 7.49024 22.0893 6.994 21.0788 6.82691C20.0684 6.65982 19.0311 6.83125 18.1281 7.31454C17.2251 7.79783 16.5071 8.56591 16.0857 9.49936C15.6643 10.4328 15.5631 11.4793 15.7978 12.4763C13.9501 12.3837 12.1426 11.9035 10.4925 11.067C8.84247 10.2305 7.38679 9.05631 6.21998 7.6207C5.80697 8.33009 5.58993 9.13651 5.59109 9.95737C5.59109 11.5685 6.41109 12.9918 7.65776 13.8251C6.91999 13.8019 6.19846 13.6027 5.55331 13.244V13.3018C5.55353 14.3748 5.92483 15.4147 6.60425 16.2452C7.28367 17.0757 8.2294 17.6457 9.28109 17.8585C8.59622 18.0441 7.8781 18.0714 7.18109 17.9385C7.47761 18.8621 8.05554 19.6698 8.83397 20.2486C9.6124 20.8274 10.5524 21.1483 11.5222 21.1663C10.5583 21.9233 9.45462 22.4829 8.27429 22.8131C7.09396 23.1433 5.86012 23.2377 4.64331 23.0907C6.76742 24.4567 9.24008 25.1819 11.7656 25.1796C20.3133 25.1796 24.9878 18.0985 24.9878 11.9574C24.9878 11.7574 24.9822 11.5551 24.9733 11.3574C25.8832 10.6998 26.6684 9.88517 27.2922 8.95182L27.2911 8.9507Z" fill="#6C6F93"/>
</svg>
